<svg xmlns="http://www.w3.org/2000/svg" width="46.696" height="46.695" viewBox="0 0 46.696 46.695"><defs><style>.a{fill:#22656d;}</style></defs><g transform="translate(0 -0.002)"><path class="a" d="M37.94,32.105H35.022a5.837,5.837,0,0,1-5.837-5.837V24.393a14.752,14.752,0,0,0,2.793-5.269c.06-.323.371-.483.579-.705a3.608,3.608,0,0,0,.5-4.345c-.114-.2-.32-.38-.308-.633,0-1.711.009-3.426,0-5.136a8.569,8.569,0,0,0-2.084-5.742A8.147,8.147,0,0,0,26.233.278,14.7,14.7,0,0,0,19.88.426,7.7,7.7,0,0,0,15.354,3.49a8.845,8.845,0,0,0-1.4,4.623c-.026,1.741-.006,3.487-.011,5.233.04.349-.257.586-.391.875a3.617,3.617,0,0,0,.827,4.425,1.709,1.709,0,0,1,.5.976,14.122,14.122,0,0,0,2.631,4.708v1.938a5.837,5.837,0,0,1-5.837,5.837H8.756S3.466,33.564,0,40.861v2.919A2.917,2.917,0,0,0,2.919,46.7H43.778A2.916,2.916,0,0,0,46.7,43.779V40.861C43.23,33.565,37.94,32.105,37.94,32.105Z" transform="translate(0 0)"/></g></svg>